
        <svg xmlns="http://www.w3.org/2000/svg" xmlns:xlink="http://www.w3.org/1999/xlink" version="1.1" width="2903.7590178934283" 
        height="3207.6124567474044" viewBox="0 0 2903.7590178934283 3207.6124567474044">
			
			<g transform="scale(10.380622837370241) translate(10, 10)">
				<defs id="SvgjsDefs10527"><linearGradient id="SvgjsLinearGradient10536"><stop id="SvgjsStop10537" stop-color="#006838" offset="0"></stop><stop id="SvgjsStop10538" stop-color="#96cf24" offset="1"></stop></linearGradient><linearGradient id="SvgjsLinearGradient10539"><stop id="SvgjsStop10540" stop-color="#2d388a" offset="0"></stop><stop id="SvgjsStop10541" stop-color="#00aeef" offset="1"></stop></linearGradient></defs><g id="SvgjsG10528" featureKey="rootContainer" transform="matrix(1,0,0,1,0,0)" fill="url(#SvgjsLinearGradient10536)"><path xmlns="http://www.w3.org/2000/svg" fill-rule="evenodd" d="M5,65 L130,0 L255, 65 L130, 10 z M5,209 L130,289 L255,204 L130, 279 z"></path></g><g id="SvgjsG10529" featureKey="symbolFeature-0" transform="matrix(0.08364312267657992,0,0,0.08364312267657992,85,90)" fill="url(#SvgjsLinearGradient10539)"><defs xmlns="http://www.w3.org/2000/svg"></defs><g xmlns="http://www.w3.org/2000/svg"><path class="fil0" d="M777 192c0,0 -231,68 -233,163 -2,96 121,275 121,275 0,0 -95,-195 -65,-279 29,-85 177,-159 177,-159zm-479 0c0,0 232,68 234,163 1,96 -122,275 -122,275 0,0 95,-195 66,-279 -29,-85 -178,-159 -178,-159zm291 23c0,28 -23,51 -51,51 -28,0 -51,-23 -51,-51 0,-28 23,-51 51,-51 28,0 51,23 51,51z" style="fill: black; fill-rule: nonzero;"></path><path class="fil0" d="M989 256c0,0 -159,47 -160,112 -1,66 83,189 83,189 0,0 -65,-134 -45,-192 20,-58 122,-109 122,-109zm-328 0c0,0 159,47 160,112 1,66 -83,189 -83,189 0,0 65,-134 45,-192 -21,-58 -122,-109 -122,-109zm199 16c0,20 -16,35 -35,35 -19,0 -35,-15 -35,-35 0,-19 16,-35 35,-35 19,0 35,16 35,35z" style="fill: black; fill-rule: nonzero;"></path><path class="fil0" d="M415 256c0,0 -159,47 -160,112 -1,66 83,189 83,189 0,0 -65,-134 -45,-192 20,-58 122,-109 122,-109zm-328 0c0,0 158,47 159,112 2,66 -83,189 -83,189 0,0 66,-134 45,-192 -20,-58 -121,-109 -121,-109zm199 16c0,20 -16,35 -35,35 -20,0 -35,-15 -35,-35 0,-19 15,-35 35,-35 19,0 35,16 35,35z" style="fill: black; fill-rule: nonzero;"></path><path class="fil1" d="M1076 473c-58,-243 -277,-425 -538,-425 -261,0 -480,182 -538,425 34,-267 262,-473 538,-473 276,0 504,206 538,473z" style="fill: url(#SvgjsLinearGradient10539);"></path></g></g><g id="SvgjsG10530" featureKey="nameLeftFeature-0" transform="matrix(2.4793386019674455,0,0,2.4793386019674455,-1.537189945042224,149.11570524767123)" fill="#137dc5"><path d="M6.62 20.12 c-0.46 0 -0.94 -0.06 -1.44 -0.16 c-1.48 -0.3 -2.92 -1.02 -4.18 -2.12 l-0.38 -0.34 l1.76 -2 l0.38 0.34 c0.92 0.8 1.94 1.34 2.94 1.54 l0.02 0 c0.3 0.06 0.6 0.1 0.9 0.1 c0.5 0 0.96 -0.1 1.34 -0.28 c0.48 -0.2 1.04 -0.64 1.04 -1.46 c0 -0.44 -0.22 -0.78 -0.68 -1.06 c-0.56 -0.34 -1.32 -0.52 -1.86 -0.62 c-0.24 -0.04 -2.28 -0.46 -3.22 -0.98 c-0.62 -0.38 -1.1 -0.86 -1.44 -1.42 c-0.34 -0.58 -0.5 -1.22 -0.5 -1.92 c0 -0.76 0.24 -1.52 0.7 -2.22 c0.44 -0.58 1.04 -1.06 1.76 -1.4 s1.52 -0.52 2.38 -0.52 c0.34 0 0.7 0.04 1.06 0.08 c1.32 0.24 2.62 0.84 3.76 1.8 l0.38 0.32 l-1.7 2.06 l-0.38 -0.32 c-1.3 -1.06 -2.42 -1.3 -3.14 -1.3 c-0.46 0 -0.88 0.1 -1.24 0.26 c-0.56 0.26 -0.92 0.74 -0.92 1.22 c0 0.44 0.16 0.72 0.54 0.98 s0.96 0.46 1.88 0.66 c0.12 0.02 0.28 0.06 0.44 0.1 c0.84 0.16 1.96 0.4 2.74 0.86 c0.68 0.36 1.2 0.86 1.56 1.44 s0.54 1.26 0.54 1.98 c0 0.9 -0.24 1.7 -0.72 2.38 c-0.42 0.58 -1.04 1.08 -1.86 1.48 c-0.7 0.36 -1.48 0.52 -2.46 0.52 z M23.939999999999998 20 l-9.94 0 l0 -14.24 l2.68 0 l0 11.62 l7.26 0 l0 2.62 z M38.58 20 l-2.88 0 l-1.46 -3.84 l-4.72 0 l-1.48 3.84 l-2.86 0 l5.48 -14.24 l2.42 0 z M30.560000000000002 13.52 l2.64 0 l-1.32 -3.46 z M44.82000000000001 20 l-2.42 0 l-5.5 -14.24 l2.88 0 l3.82 9.94 l3.84 -9.94 l2.86 0 z M65.78000000000002 20 l-3.34 0 l-5.3 -7.44 l-2.28 2.16 l0 5.28 l-2.66 0 l0 -14.24 l2.66 0 l0 5.34 l5.68 -5.34 l3.84 0 l-5.22 4.94 z M79.78000000000002 20 l-2.88 0 l-1.46 -3.84 l-4.72 0 l-1.48 3.84 l-2.86 0 l5.48 -14.24 l2.42 0 z M71.76000000000002 13.52 l2.64 0 l-1.32 -3.46 z"></path></g><g id="SvgjsG10531" featureKey="nameRightFeature-0" transform="matrix(2.503476865507526,0,0,2.503476865507526,201.49791173194404,148.37970069218977)" fill="#137dc5"><path d="M5.76 12.120000000000001 c3.32 0.46 4.94 2.12 4.94 4.2 c0 2.44 -2.14 3.9 -5.18 3.9 c-2.4 0 -4.14 -0.82 -4.92 -2.1 l0.9 -0.62 c0.6 1.36 2.16 2.34 4.32 2.34 c2.4 0 3.98 -1.34 3.8 -3.52 c-0.16 -1.8 -1.68 -2.96 -4.3 -3.3 c-3.1 -0.4 -4.46 -1.6 -4.46 -3.66 c0 -2 1.9 -3.52 4.78 -3.52 c2.06 0 3.72 0.94 4.32 2.4 l-0.94 0.48 c-0.52 -1.38 -1.88 -2.5 -3.66 -2.5 c-2.26 0 -3.62 1.4 -3.44 3.14 c0.16 1.74 1.48 2.42 3.84 2.76 z M21.8 20 l-6.4 -7.08 l-1.94 1.86 l0 5.22 l-1.16 0 l0 -14 l1.16 0 l0 8.2 l8.56 -8.2 l0.6 0 l-6.42 6.14 l7.06 7.86 l-1.46 0 z"></path></g>
			</g>
		</svg>
	